<svg width="80" height="80" viewBox="0 0 20 20" fill="none" xmlns="http://www.w3.org/2000/svg">
  <g clip-path="url(#clip0_1280_1578)">
    <path
      d="M0 17V15.5H4V15H3.5C3.08333 15 2.72917 14.8542 2.4375 14.5625C2.14583 14.2708 2 13.9167 2 13.5V4.5C2 4.08333 2.14583 3.72917 2.4375 3.4375C2.72917 3.14583 3.08333 3 3.5 3H16.5C16.9167 3 17.2708 3.14583 17.5625 3.4375C17.8542 3.72917 18 4.08333 18 4.5V13.5C18 13.9167 17.8542 14.2708 17.5625 14.5625C17.2708 14.8542 16.9167 15 16.5 15H16V15.5H20V17H0ZM3.5 13.5H16.5V4.5H3.5V13.5ZM3.5 13.5V4.5V13.5Z"
      fill="#1f1f1f" />
  </g>
  <defs>
    <clipPath id="clip0_1280_1578">
      <rect width="20" height="20" fill="white" />
    </clipPath>
  </defs>
</svg>